<svg xmlns="http://www.w3.org/2000/svg" xmlns:xlink="http://www.w3.org/1999/xlink" width="500" zoomAndPan="magnify" viewBox="0 0 375 374.999991" height="500" preserveAspectRatio="xMidYMid meet" version="1.0"><defs><clipPath id="cf874cae66"><path d="M 100.316406 116.097656 L 230.816406 116.097656 L 230.816406 246.597656 L 100.316406 246.597656 Z M 100.316406 116.097656 " clip-rule="nonzero"/></clipPath><clipPath id="f74a356e19"><path d="M 123 146 L 251 146 L 251 217 L 123 217 Z M 123 146 " clip-rule="nonzero"/></clipPath><clipPath id="20fe7ace2d"><path d="M 122.132812 212.019531 L 124.351562 146.808594 L 252.527344 151.164062 L 250.3125 216.378906 Z M 122.132812 212.019531 " clip-rule="nonzero"/></clipPath><clipPath id="16cd0995c5"><path d="M 122.132812 212.019531 L 124.351562 146.808594 L 252.527344 151.164062 L 250.3125 216.378906 Z M 122.132812 212.019531 " clip-rule="nonzero"/></clipPath><clipPath id="64c9b9f033"><path d="M 123 173 L 251 173 L 251 217 L 123 217 Z M 123 173 " clip-rule="nonzero"/></clipPath><clipPath id="7095111ff5"><path d="M 122.132812 212.019531 L 124.351562 146.808594 L 252.527344 151.164062 L 250.3125 216.378906 Z M 122.132812 212.019531 " clip-rule="nonzero"/></clipPath><clipPath id="860122791e"><path d="M 122.132812 212.019531 L 124.351562 146.808594 L 252.527344 151.164062 L 250.3125 216.378906 Z M 122.132812 212.019531 " clip-rule="nonzero"/></clipPath></defs><g clip-path="url(#cf874cae66)"><path fill="#e1921b" d="M 231.105469 181.492188 C 231.105469 182.5625 231.078125 183.632812 231.027344 184.699219 C 230.976562 185.769531 230.894531 186.835938 230.789062 187.902344 C 230.6875 188.96875 230.554688 190.027344 230.398438 191.085938 C 230.242188 192.144531 230.058594 193.199219 229.847656 194.25 C 229.640625 195.300781 229.40625 196.34375 229.144531 197.382812 C 228.886719 198.421875 228.601562 199.453125 228.289062 200.476562 C 227.980469 201.5 227.644531 202.515625 227.28125 203.523438 C 226.921875 204.53125 226.539062 205.527344 226.128906 206.519531 C 225.71875 207.507812 225.285156 208.484375 224.828125 209.453125 C 224.371094 210.417969 223.886719 211.375 223.382812 212.320312 C 222.878906 213.261719 222.351562 214.195312 221.800781 215.113281 C 221.25 216.03125 220.679688 216.933594 220.085938 217.824219 C 219.488281 218.714844 218.875 219.589844 218.238281 220.449219 C 217.597656 221.308594 216.941406 222.152344 216.261719 222.980469 C 215.582031 223.804688 214.882812 224.617188 214.164062 225.410156 C 213.445312 226.203125 212.707031 226.976562 211.953125 227.734375 C 211.195312 228.492188 210.421875 229.226562 209.628906 229.945312 C 208.835938 230.664062 208.023438 231.363281 207.195312 232.042969 C 206.371094 232.722656 205.527344 233.378906 204.667969 234.019531 C 203.808594 234.65625 202.933594 235.273438 202.042969 235.867188 C 201.152344 236.460938 200.25 237.035156 199.332031 237.582031 C 198.414062 238.132812 197.480469 238.660156 196.539062 239.164062 C 195.59375 239.671875 194.636719 240.152344 193.671875 240.609375 C 192.703125 241.066406 191.726562 241.5 190.734375 241.910156 C 189.746094 242.320312 188.75 242.703125 187.742188 243.066406 C 186.734375 243.425781 185.71875 243.761719 184.695312 244.070312 C 183.667969 244.382812 182.636719 244.667969 181.601562 244.929688 C 180.5625 245.1875 179.519531 245.421875 178.46875 245.632812 C 177.417969 245.839844 176.363281 246.023438 175.304688 246.179688 C 174.246094 246.335938 173.183594 246.46875 172.121094 246.574219 C 171.054688 246.675781 169.988281 246.757812 168.917969 246.808594 C 167.851562 246.863281 166.78125 246.886719 165.710938 246.886719 C 164.640625 246.886719 163.570312 246.863281 162.5 246.808594 C 161.433594 246.757812 160.367188 246.675781 159.300781 246.574219 C 158.234375 246.46875 157.171875 246.335938 156.113281 246.179688 C 155.054688 246.023438 154.003906 245.839844 152.953125 245.632812 C 151.902344 245.421875 150.859375 245.1875 149.820312 244.929688 C 148.78125 244.667969 147.75 244.382812 146.726562 244.070312 C 145.703125 243.761719 144.6875 243.425781 143.679688 243.066406 C 142.671875 242.703125 141.671875 242.320312 140.683594 241.910156 C 139.695312 241.5 138.71875 241.066406 137.75 240.609375 C 136.78125 240.152344 135.828125 239.671875 134.882812 239.164062 C 133.9375 238.660156 133.007812 238.132812 132.089844 237.582031 C 131.171875 237.035156 130.269531 236.460938 129.378906 235.867188 C 128.488281 235.273438 127.613281 234.65625 126.753906 234.019531 C 125.894531 233.378906 125.050781 232.722656 124.222656 232.042969 C 123.398438 231.363281 122.585938 230.664062 121.792969 229.945312 C 121 229.226562 120.226562 228.492188 119.46875 227.734375 C 118.710938 226.976562 117.972656 226.203125 117.253906 225.410156 C 116.535156 224.617188 115.839844 223.804688 115.160156 222.980469 C 114.480469 222.152344 113.820312 221.308594 113.183594 220.449219 C 112.546875 219.589844 111.929688 218.714844 111.335938 217.824219 C 110.742188 216.933594 110.167969 216.03125 109.617188 215.113281 C 109.070312 214.195312 108.542969 213.261719 108.035156 212.320312 C 107.53125 211.375 107.050781 210.417969 106.59375 209.453125 C 106.136719 208.484375 105.703125 207.507812 105.292969 206.519531 C 104.882812 205.527344 104.5 204.53125 104.136719 203.523438 C 103.777344 202.515625 103.441406 201.5 103.128906 200.476562 C 102.820312 199.453125 102.535156 198.421875 102.273438 197.382812 C 102.015625 196.34375 101.78125 195.300781 101.570312 194.25 C 101.363281 193.199219 101.179688 192.144531 101.023438 191.085938 C 100.867188 190.027344 100.734375 188.96875 100.628906 187.902344 C 100.523438 186.835938 100.445312 185.769531 100.394531 184.699219 C 100.339844 183.632812 100.316406 182.5625 100.316406 181.492188 C 100.316406 180.421875 100.339844 179.351562 100.394531 178.285156 C 100.445312 177.214844 100.523438 176.148438 100.628906 175.082031 C 100.734375 174.015625 100.867188 172.957031 101.023438 171.898438 C 101.179688 170.839844 101.363281 169.785156 101.570312 168.734375 C 101.78125 167.683594 102.015625 166.640625 102.273438 165.601562 C 102.535156 164.5625 102.820312 163.53125 103.128906 162.507812 C 103.441406 161.484375 103.777344 160.46875 104.136719 159.460938 C 104.5 158.453125 104.882812 157.457031 105.292969 156.464844 C 105.703125 155.476562 106.136719 154.5 106.59375 153.53125 C 107.050781 152.566406 107.53125 151.609375 108.035156 150.664062 C 108.542969 149.722656 109.070312 148.789062 109.617188 147.871094 C 110.167969 146.953125 110.742188 146.050781 111.335938 145.160156 C 111.929688 144.269531 112.546875 143.394531 113.183594 142.535156 C 113.820312 141.675781 114.480469 140.832031 115.160156 140.003906 C 115.839844 139.179688 116.535156 138.367188 117.253906 137.574219 C 117.972656 136.78125 118.710938 136.007812 119.46875 135.25 C 120.226562 134.492188 121 133.757812 121.792969 133.039062 C 122.585938 132.320312 123.398438 131.621094 124.222656 130.941406 C 125.050781 130.261719 125.894531 129.605469 126.753906 128.964844 C 127.613281 128.328125 128.488281 127.710938 129.378906 127.117188 C 130.269531 126.523438 131.171875 125.949219 132.089844 125.402344 C 133.007812 124.851562 133.9375 124.324219 134.882812 123.820312 C 135.828125 123.3125 136.78125 122.832031 137.75 122.375 C 138.71875 121.917969 139.695312 121.484375 140.683594 121.074219 C 141.671875 120.664062 142.671875 120.28125 143.679688 119.917969 C 144.6875 119.558594 145.703125 119.222656 146.726562 118.914062 C 147.75 118.601562 148.78125 118.316406 149.820312 118.054688 C 150.859375 117.796875 151.902344 117.5625 152.953125 117.351562 C 154.003906 117.144531 155.054688 116.960938 156.113281 116.804688 C 157.171875 116.648438 158.234375 116.515625 159.300781 116.410156 C 160.367188 116.308594 161.433594 116.226562 162.5 116.175781 C 163.570312 116.121094 164.640625 116.097656 165.710938 116.097656 C 166.78125 116.097656 167.851562 116.121094 168.917969 116.175781 C 169.988281 116.226562 171.054688 116.308594 172.121094 116.410156 C 173.183594 116.515625 174.246094 116.648438 175.304688 116.804688 C 176.363281 116.960938 177.417969 117.144531 178.46875 117.351562 C 179.519531 117.5625 180.5625 117.796875 181.601562 118.054688 C 182.636719 118.316406 183.667969 118.601562 184.695312 118.914062 C 185.71875 119.222656 186.734375 119.558594 187.742188 119.917969 C 188.75 120.28125 189.746094 120.664062 190.734375 121.074219 C 191.726562 121.484375 192.703125 121.917969 193.671875 122.375 C 194.636719 122.832031 195.59375 123.3125 196.539062 123.820312 C 197.480469 124.324219 198.414062 124.851562 199.332031 125.402344 C 200.25 125.949219 201.152344 126.523438 202.042969 127.117188 C 202.933594 127.710938 203.808594 128.328125 204.667969 128.964844 C 205.527344 129.605469 206.371094 130.261719 207.195312 130.941406 C 208.023438 131.621094 208.835938 132.320312 209.628906 133.039062 C 210.421875 133.757812 211.195312 134.492188 211.953125 135.25 C 212.707031 136.007812 213.445312 136.78125 214.164062 137.574219 C 214.882812 138.367188 215.582031 139.179688 216.261719 140.003906 C 216.941406 140.832031 217.597656 141.675781 218.238281 142.535156 C 218.875 143.394531 219.488281 144.269531 220.085938 145.160156 C 220.679688 146.050781 221.25 146.953125 221.800781 147.871094 C 222.351562 148.789062 222.878906 149.722656 223.382812 150.664062 C 223.886719 151.609375 224.371094 152.566406 224.828125 153.53125 C 225.285156 154.5 225.71875 155.476562 226.128906 156.464844 C 226.539062 157.457031 226.921875 158.453125 227.28125 159.460938 C 227.644531 160.46875 227.980469 161.484375 228.289062 162.507812 C 228.601562 163.53125 228.886719 164.5625 229.144531 165.601562 C 229.40625 166.640625 229.640625 167.683594 229.847656 168.734375 C 230.058594 169.785156 230.242188 170.839844 230.398438 171.898438 C 230.554688 172.957031 230.6875 174.015625 230.789062 175.082031 C 230.894531 176.148438 230.976562 177.214844 231.027344 178.285156 C 231.078125 179.351562 231.105469 180.421875 231.105469 181.492188 Z M 231.105469 181.492188 " fill-opacity="1" fill-rule="nonzero"/></g><g clip-path="url(#f74a356e19)"><g clip-path="url(#20fe7ace2d)"><g clip-path="url(#16cd0995c5)"><path fill="#000000" d="M 123.238281 179.585938 L 124.359375 146.609375 L 167.78125 174.269531 L 168.441406 154.9375 L 250.640625 216.363281 L 186.230469 187.988281 L 186.554688 209.058594 Z M 123.238281 179.585938 " fill-opacity="1" fill-rule="nonzero"/></g></g></g><g clip-path="url(#64c9b9f033)"><g clip-path="url(#7095111ff5)"><g clip-path="url(#860122791e)"><path fill="#0ce77e" d="M 123.238281 179.585938 L 123.429688 173.902344 L 186.554688 209.058594 Z M 250.640625 216.363281 L 186.367188 184.007812 L 186.230469 187.988281 Z M 250.640625 216.363281 " fill-opacity="1" fill-rule="nonzero"/></g></g></g></svg>