<svg xmlns="http://www.w3.org/2000/svg" xmlns:xlink="http://www.w3.org/1999/xlink" width="500" zoomAndPan="magnify" viewBox="0 0 375 374.999991" height="500" preserveAspectRatio="xMidYMid meet" version="1.0"><defs><clipPath id="983e2feadf"><path d="M 117.6875 71.257812 L 239 71.257812 L 239 192.757812 L 117.6875 192.757812 Z M 117.6875 71.257812 " clip-rule="nonzero"/></clipPath><clipPath id="26b790c7ec"><path d="M 126 103 L 230 103 L 230 160 L 126 160 Z M 126 103 " clip-rule="nonzero"/></clipPath><clipPath id="87e634a4ca"><path d="M 125.769531 156.382812 L 127.554688 103.914062 L 230.992188 107.429688 L 229.210938 159.898438 Z M 125.769531 156.382812 " clip-rule="nonzero"/></clipPath><clipPath id="2f70065027"><path d="M 125.769531 156.382812 L 127.554688 103.914062 L 230.992188 107.429688 L 229.210938 159.898438 Z M 125.769531 156.382812 " clip-rule="nonzero"/></clipPath><clipPath id="ae66e1793c"><path d="M 126 125 L 230 125 L 230 160 L 126 160 Z M 126 125 " clip-rule="nonzero"/></clipPath><clipPath id="757ccb32e9"><path d="M 125.769531 156.382812 L 127.554688 103.914062 L 230.992188 107.429688 L 229.210938 159.898438 Z M 125.769531 156.382812 " clip-rule="nonzero"/></clipPath><clipPath id="645a2583b3"><path d="M 125.769531 156.382812 L 127.554688 103.914062 L 230.992188 107.429688 L 229.210938 159.898438 Z M 125.769531 156.382812 " clip-rule="nonzero"/></clipPath></defs><g clip-path="url(#983e2feadf)"><path fill="#000000" d="M 238.882812 131.851562 C 238.882812 133.835938 238.785156 135.816406 238.589844 137.792969 C 238.398438 139.769531 238.105469 141.726562 237.71875 143.675781 C 237.332031 145.621094 236.851562 147.542969 236.273438 149.445312 C 235.699219 151.34375 235.03125 153.207031 234.269531 155.042969 C 233.511719 156.875 232.664062 158.667969 231.726562 160.417969 C 230.792969 162.167969 229.773438 163.867188 228.671875 165.519531 C 227.566406 167.167969 226.386719 168.761719 225.128906 170.296875 C 223.867188 171.828125 222.539062 173.296875 221.132812 174.703125 C 219.730469 176.105469 218.261719 177.4375 216.726562 178.695312 C 215.195312 179.953125 213.601562 181.136719 211.953125 182.238281 C 210.300781 183.339844 208.601562 184.359375 206.851562 185.292969 C 205.101562 186.230469 203.308594 187.078125 201.476562 187.835938 C 199.640625 188.597656 197.777344 189.265625 195.875 189.839844 C 193.976562 190.417969 192.054688 190.898438 190.109375 191.285156 C 188.160156 191.671875 186.199219 191.964844 184.226562 192.15625 C 182.25 192.351562 180.269531 192.449219 178.285156 192.449219 C 176.300781 192.449219 174.320312 192.351562 172.347656 192.15625 C 170.371094 191.964844 168.410156 191.671875 166.464844 191.285156 C 164.519531 190.898438 162.59375 190.417969 160.695312 189.839844 C 158.796875 189.265625 156.929688 188.597656 155.097656 187.835938 C 153.261719 187.078125 151.472656 186.230469 149.722656 185.292969 C 147.972656 184.359375 146.269531 183.339844 144.621094 182.238281 C 142.96875 181.136719 141.378906 179.953125 139.84375 178.695312 C 138.308594 177.4375 136.839844 176.105469 135.4375 174.703125 C 134.035156 173.296875 132.703125 171.828125 131.445312 170.296875 C 130.183594 168.761719 129.003906 167.167969 127.902344 165.519531 C 126.800781 163.867188 125.78125 162.167969 124.84375 160.417969 C 123.910156 158.667969 123.0625 156.875 122.300781 155.042969 C 121.542969 153.207031 120.875 151.34375 120.296875 149.445312 C 119.722656 147.542969 119.242188 145.621094 118.855469 143.675781 C 118.464844 141.726562 118.175781 139.769531 117.980469 137.792969 C 117.785156 135.816406 117.6875 133.835938 117.6875 131.851562 C 117.6875 129.867188 117.785156 127.890625 117.980469 125.914062 C 118.175781 123.9375 118.464844 121.976562 118.855469 120.03125 C 119.242188 118.085938 119.722656 116.160156 120.296875 114.261719 C 120.875 112.363281 121.542969 110.496094 122.300781 108.664062 C 123.0625 106.832031 123.910156 105.039062 124.84375 103.289062 C 125.78125 101.539062 126.800781 99.835938 127.902344 98.1875 C 129.003906 96.539062 130.183594 94.945312 131.445312 93.410156 C 132.703125 91.875 134.035156 90.40625 135.4375 89.003906 C 136.839844 87.601562 138.308594 86.269531 139.84375 85.011719 C 141.378906 83.753906 142.96875 82.570312 144.621094 81.46875 C 146.269531 80.367188 147.972656 79.347656 149.722656 78.410156 C 151.472656 77.476562 153.261719 76.628906 155.097656 75.867188 C 156.929688 75.109375 158.796875 74.441406 160.695312 73.867188 C 162.59375 73.289062 164.519531 72.808594 166.464844 72.421875 C 168.410156 72.035156 170.371094 71.742188 172.347656 71.546875 C 174.320312 71.355469 176.300781 71.257812 178.285156 71.257812 C 180.269531 71.257812 182.25 71.355469 184.226562 71.546875 C 186.199219 71.742188 188.160156 72.035156 190.109375 72.421875 C 192.054688 72.808594 193.976562 73.289062 195.875 73.867188 C 197.777344 74.441406 199.640625 75.109375 201.476562 75.867188 C 203.308594 76.628906 205.101562 77.476562 206.851562 78.410156 C 208.601562 79.347656 210.300781 80.367188 211.953125 81.46875 C 213.601562 82.570312 215.195312 83.753906 216.726562 85.011719 C 218.261719 86.269531 219.730469 87.601562 221.132812 89.003906 C 222.539062 90.40625 223.867188 91.875 225.128906 93.410156 C 226.386719 94.945312 227.566406 96.539062 228.671875 98.1875 C 229.773438 99.835938 230.792969 101.539062 231.726562 103.289062 C 232.664062 105.039062 233.511719 106.832031 234.269531 108.664062 C 235.03125 110.496094 235.699219 112.363281 236.273438 114.261719 C 236.851562 116.160156 237.332031 118.085938 237.71875 120.03125 C 238.105469 121.976562 238.398438 123.9375 238.589844 125.914062 C 238.785156 127.890625 238.882812 129.867188 238.882812 131.851562 Z M 238.882812 131.851562 " fill-opacity="1" fill-rule="nonzero"/></g><g clip-path="url(#26b790c7ec)"><g clip-path="url(#87e634a4ca)"><g clip-path="url(#2f70065027)"><path fill="#ffffff" d="M 126.65625 130.324219 L 127.554688 103.828125 L 162.449219 126.050781 L 162.976562 110.519531 L 229.023438 159.875 L 177.269531 137.074219 L 177.53125 154.003906 Z M 126.65625 130.324219 " fill-opacity="1" fill-rule="nonzero"/></g></g></g><g clip-path="url(#ae66e1793c)"><g clip-path="url(#757ccb32e9)"><g clip-path="url(#645a2583b3)"><path fill="#0ce77e" d="M 126.65625 130.324219 L 126.808594 125.753906 L 177.53125 154.003906 Z M 229.023438 159.875 L 177.378906 133.878906 L 177.269531 137.074219 Z M 229.023438 159.875 " fill-opacity="1" fill-rule="nonzero"/></g></g></g></svg>