<svg xmlns="http://www.w3.org/2000/svg" xmlns:xlink="http://www.w3.org/1999/xlink" width="500" zoomAndPan="magnify" viewBox="0 0 375 374.999991" height="500" preserveAspectRatio="xMidYMid meet" version="1.0"><defs><clipPath id="ad627ecda5"><path d="M 126 103 L 258 103 L 258 176 L 126 176 Z M 126 103 " clip-rule="nonzero"/></clipPath><clipPath id="f6522c5363"><path d="M 125.269531 171.035156 L 127.5625 103.574219 L 259.484375 108.0625 L 257.191406 175.523438 Z M 125.269531 171.035156 " clip-rule="nonzero"/></clipPath><clipPath id="8ea2bb459b"><path d="M 125.269531 171.035156 L 127.5625 103.574219 L 259.484375 108.0625 L 257.191406 175.523438 Z M 125.269531 171.035156 " clip-rule="nonzero"/></clipPath><clipPath id="375af66ebf"><path d="M 126 131 L 258 131 L 258 176 L 126 176 Z M 126 131 " clip-rule="nonzero"/></clipPath><clipPath id="4890e49926"><path d="M 125.269531 171.035156 L 127.5625 103.574219 L 259.484375 108.0625 L 257.191406 175.523438 Z M 125.269531 171.035156 " clip-rule="nonzero"/></clipPath><clipPath id="6ac1c383ae"><path d="M 125.269531 171.035156 L 127.5625 103.574219 L 259.484375 108.0625 L 257.191406 175.523438 Z M 125.269531 171.035156 " clip-rule="nonzero"/></clipPath></defs><g clip-path="url(#ad627ecda5)"><g clip-path="url(#f6522c5363)"><g clip-path="url(#8ea2bb459b)"><path fill="#ffffff" d="M 126.402344 137.714844 L 127.554688 103.832031 L 172.171875 132.253906 L 172.847656 112.390625 L 257.308594 175.503906 L 191.128906 146.347656 L 191.460938 168 Z M 126.402344 137.714844 " fill-opacity="1" fill-rule="nonzero"/></g></g></g><g clip-path="url(#375af66ebf)"><g clip-path="url(#4890e49926)"><g clip-path="url(#6ac1c383ae)"><path fill="#0ce77e" d="M 126.402344 137.714844 L 126.601562 131.875 L 191.460938 168 Z M 257.308594 175.503906 L 191.269531 142.257812 L 191.128906 146.347656 Z M 257.308594 175.503906 " fill-opacity="1" fill-rule="nonzero"/></g></g></g></svg>