<svg xmlns="http://www.w3.org/2000/svg" xmlns:xlink="http://www.w3.org/1999/xlink" width="500" zoomAndPan="magnify" viewBox="0 0 375 374.999991" height="500" preserveAspectRatio="xMidYMid meet" version="1.0"><defs><g/><clipPath id="001dbca5c7"><path d="M 134 152 L 188 152 L 188 181 L 134 181 Z M 134 152 " clip-rule="nonzero"/></clipPath><clipPath id="568757e344"><path d="M 134.46875 178.859375 L 135.386719 151.875 L 187.855469 153.660156 L 186.9375 180.644531 Z M 134.46875 178.859375 " clip-rule="nonzero"/></clipPath><clipPath id="533e0a58b1"><path d="M 134.46875 178.859375 L 135.386719 151.875 L 187.855469 153.660156 L 186.9375 180.644531 Z M 134.46875 178.859375 " clip-rule="nonzero"/></clipPath><clipPath id="d4337cb1c8"><path d="M 134 163 L 188 163 L 188 181 L 134 181 Z M 134 163 " clip-rule="nonzero"/></clipPath><clipPath id="ea314a0d40"><path d="M 134.46875 178.859375 L 135.386719 151.875 L 187.855469 153.660156 L 186.9375 180.644531 Z M 134.46875 178.859375 " clip-rule="nonzero"/></clipPath><clipPath id="c56194a32a"><path d="M 134.46875 178.859375 L 135.386719 151.875 L 187.855469 153.660156 L 186.9375 180.644531 Z M 134.46875 178.859375 " clip-rule="nonzero"/></clipPath></defs><rect x="-37.5" width="450" fill="#ffffff" y="-37.499999" height="449.999989" fill-opacity="1"/><rect x="-37.5" width="450" fill="#ffffff" y="-37.499999" height="449.999989" fill-opacity="1"/><g fill="#000000" fill-opacity="1"><g transform="translate(121.573957, 211.13647)"><g><path d="M 16.140625 -12.0625 L 12.625 -8.3125 L 12.625 0 L 3.328125 0 L 3.328125 -33.234375 L 12.625 -33.234375 L 12.625 -19.421875 L 25.484375 -33.234375 L 35.84375 -33.234375 L 22.265625 -18.515625 L 36.546875 0 L 25.640625 0 Z M 16.140625 -12.0625 "/></g></g></g><g fill="#000000" fill-opacity="1"><g transform="translate(152.422718, 211.13647)"><g><path d="M 25.578125 -6.453125 L 11.53125 -6.453125 L 8.921875 0 L -0.671875 0 L 14 -33.234375 L 23.265625 -33.234375 L 37.96875 0 L 28.203125 0 Z M 22.828125 -13.390625 L 18.5625 -24.015625 L 14.28125 -13.390625 Z M 22.828125 -13.390625 "/></g></g></g><g fill="#000000" fill-opacity="1"><g transform="translate(184.885152, 211.13647)"><g><path d="M 17.84375 -8.828125 L 12.71875 -8.828125 L 12.71875 0 L 3.328125 0 L 3.328125 -33.234375 L 18.515625 -33.234375 C 21.515625 -33.234375 24.125 -32.734375 26.34375 -31.734375 C 28.5625 -30.734375 30.269531 -29.304688 31.46875 -27.453125 C 32.675781 -25.609375 33.28125 -23.4375 33.28125 -20.9375 C 33.28125 -18.53125 32.71875 -16.429688 31.59375 -14.640625 C 30.46875 -12.859375 28.859375 -11.457031 26.765625 -10.4375 L 33.9375 0 L 23.875 0 Z M 23.78125 -20.9375 C 23.78125 -22.488281 23.289062 -23.691406 22.3125 -24.546875 C 21.332031 -25.398438 19.875 -25.828125 17.9375 -25.828125 L 12.71875 -25.828125 L 12.71875 -16.09375 L 17.9375 -16.09375 C 19.875 -16.09375 21.332031 -16.507812 22.3125 -17.34375 C 23.289062 -18.1875 23.78125 -19.382812 23.78125 -20.9375 Z M 23.78125 -20.9375 "/></g></g></g><g fill="#000000" fill-opacity="1"><g transform="translate(215.164374, 211.13647)"><g><path d="M 34.9375 -33.234375 L 34.9375 0 L 27.203125 0 L 12.53125 -17.703125 L 12.53125 0 L 3.328125 0 L 3.328125 -33.234375 L 11.0625 -33.234375 L 25.734375 -15.515625 L 25.734375 -33.234375 Z M 34.9375 -33.234375 "/></g></g></g><g clip-path="url(#001dbca5c7)"><g clip-path="url(#568757e344)"><g clip-path="url(#533e0a58b1)"><path fill="#000000" d="M 134.917969 165.597656 L 135.378906 152.113281 L 153.136719 163.425781 L 153.40625 155.519531 L 187.019531 180.636719 L 160.679688 169.035156 L 160.8125 177.652344 Z M 134.917969 165.597656 " fill-opacity="1" fill-rule="nonzero"/></g></g></g><g clip-path="url(#d4337cb1c8)"><g clip-path="url(#ea314a0d40)"><g clip-path="url(#c56194a32a)"><path fill="#e1921b" d="M 134.917969 165.597656 L 135 163.273438 L 160.8125 177.652344 Z M 187.019531 180.636719 L 160.734375 167.40625 L 160.679688 169.035156 Z M 187.019531 180.636719 " fill-opacity="1" fill-rule="nonzero"/></g></g></g></svg>