<svg xmlns="http://www.w3.org/2000/svg" xmlns:xlink="http://www.w3.org/1999/xlink" width="350" zoomAndPan="magnify" viewBox="0 0 262.5 84.749999" height="113" preserveAspectRatio="xMidYMid meet" version="1.0"><defs><g/><clipPath id="24a65a1fde"><path d="M 78 0 L 131 0 L 131 29 L 78 29 Z M 78 0 " clip-rule="nonzero"/></clipPath><clipPath id="0ff16c5d31"><path d="M 77.9375 26.671875 L 78.851562 -0.234375 L 131.164062 1.542969 L 130.25 28.449219 Z M 77.9375 26.671875 " clip-rule="nonzero"/></clipPath><clipPath id="285cfa8336"><path d="M 77.9375 26.671875 L 78.851562 -0.234375 L 131.164062 1.542969 L 130.25 28.449219 Z M 77.9375 26.671875 " clip-rule="nonzero"/></clipPath><clipPath id="65eb19c37b"><path d="M 78 11 L 131 11 L 131 29 L 78 29 Z M 78 11 " clip-rule="nonzero"/></clipPath><clipPath id="fc306e02dd"><path d="M 77.9375 26.671875 L 78.851562 -0.234375 L 131.164062 1.542969 L 130.25 28.449219 Z M 77.9375 26.671875 " clip-rule="nonzero"/></clipPath><clipPath id="50d7e61544"><path d="M 77.9375 26.671875 L 78.851562 -0.234375 L 131.164062 1.542969 L 130.25 28.449219 Z M 77.9375 26.671875 " clip-rule="nonzero"/></clipPath></defs><g fill="#000000" fill-opacity="1"><g transform="translate(65.079174, 58.852506)"><g><path d="M 16.09375 -12.015625 L 12.59375 -8.28125 L 12.59375 0 L 3.3125 0 L 3.3125 -33.125 L 12.59375 -33.125 L 12.59375 -19.359375 L 25.421875 -33.125 L 35.734375 -33.125 L 22.203125 -18.453125 L 36.4375 0 L 25.5625 0 Z M 16.09375 -12.015625 "/></g></g></g><g fill="#000000" fill-opacity="1"><g transform="translate(95.837203, 58.852506)"><g><path d="M 25.515625 -6.4375 L 11.5 -6.4375 L 8.890625 0 L -0.65625 0 L 13.96875 -33.125 L 23.1875 -33.125 L 37.859375 0 L 28.109375 0 Z M 22.765625 -13.34375 L 18.5 -23.953125 L 14.25 -13.34375 Z M 22.765625 -13.34375 "/></g></g></g><g fill="#000000" fill-opacity="1"><g transform="translate(128.20416, 58.852506)"><g><path d="M 17.796875 -8.796875 L 12.6875 -8.796875 L 12.6875 0 L 3.3125 0 L 3.3125 -33.125 L 18.453125 -33.125 C 21.453125 -33.125 24.054688 -32.625 26.265625 -31.625 C 28.472656 -30.632812 30.175781 -29.21875 31.375 -27.375 C 32.570312 -25.53125 33.171875 -23.363281 33.171875 -20.875 C 33.171875 -18.476562 32.609375 -16.382812 31.484375 -14.59375 C 30.367188 -12.8125 28.769531 -11.414062 26.6875 -10.40625 L 33.84375 0 L 23.8125 0 Z M 23.71875 -20.875 C 23.71875 -22.414062 23.226562 -23.613281 22.25 -24.46875 C 21.269531 -25.320312 19.816406 -25.75 17.890625 -25.75 L 12.6875 -25.75 L 12.6875 -16.046875 L 17.890625 -16.046875 C 19.816406 -16.046875 21.269531 -16.460938 22.25 -17.296875 C 23.226562 -18.128906 23.71875 -19.320312 23.71875 -20.875 Z M 23.71875 -20.875 "/></g></g></g><g fill="#000000" fill-opacity="1"><g transform="translate(158.394326, 58.852506)"><g><path d="M 34.828125 -33.125 L 34.828125 0 L 27.125 0 L 12.5 -17.65625 L 12.5 0 L 3.3125 0 L 3.3125 -33.125 L 11.03125 -33.125 L 25.65625 -15.46875 L 25.65625 -33.125 Z M 34.828125 -33.125 "/></g></g></g><g clip-path="url(#24a65a1fde)"><g clip-path="url(#0ff16c5d31)"><g clip-path="url(#285cfa8336)"><path fill="#000000" d="M 78.386719 13.449219 L 78.84375 0.00390625 L 96.546875 11.28125 L 96.816406 3.398438 L 130.332031 28.445312 L 104.070312 16.875 L 104.203125 25.464844 Z M 78.386719 13.449219 " fill-opacity="1" fill-rule="nonzero"/></g></g></g><g clip-path="url(#65eb19c37b)"><g clip-path="url(#fc306e02dd)"><g clip-path="url(#50d7e61544)"><path fill="#0ce77e" d="M 78.386719 13.449219 L 78.464844 11.128906 L 104.203125 25.464844 Z M 130.332031 28.445312 L 104.125 15.25 L 104.070312 16.875 Z M 130.332031 28.445312 " fill-opacity="1" fill-rule="nonzero"/></g></g></g></svg>